<svg id="Layer_1" data-name="Layer 1" xmlns="http://www.w3.org/2000/svg" viewBox="0 0 1800 1800"><defs><style>.cls-1{font-size:1003.27px;font-family:ButlerStencil-Light, Butler Stencil;font-weight:300;letter-spacing:0.02em;}.cls-1,.cls-2{fill:#cce2cb;}</style></defs><title>Logo SVG</title><text class="cls-1" transform="translate(558.98 964.37) scale(0.98 1)">G</text><path class="cls-2" d="M1047.39,1332.71a37.07,37.07,0,0,1,11.08-1.89,101.65,101.65,0,0,1,11.31.31,159.77,159.77,0,0,1,22.24,4.13c3.62,1,7.29,2,10.88,3.13l10.69,3.68c3.59,1.17,7,2.76,10.5,4.15s7,2.75,10.4,4.42c27.43,12.44,53.43,27.72,78.46,44.26,6.29,4.1,12.34,8.54,18.52,12.79s12.33,8.56,18.3,13q18,13.29,36.54,25.72,9.27,6.21,18.79,12c3.13,2,6.4,3.75,9.6,5.64s6.51,3.53,9.82,5.17a114.9,114.9,0,0,0,20.55,8.18c7.08,2,14.58,2.86,22,1.43-7.18,2.21-15,2-22.42.59a112.26,112.26,0,0,1-21.61-6.86c-13.91-5.92-27-13.39-39.83-21.23s-25.21-16.32-37.5-24.87c-6.12-4.35-12.24-8.59-18.38-12.78s-12.21-8.52-18.47-12.55l-18.7-12.19c-6.27-4-12.73-7.68-19-11.6-12.74-7.67-25.81-14.74-39-21.44-13.37-6.39-26.88-12.67-41-17.12l-2.63-.92-2.67-.74-5.35-1.51c-1.77-.55-3.59-.9-5.4-1.27l-5.44-1.16a104.7,104.7,0,0,0-11-1.23A36.53,36.53,0,0,0,1047.39,1332.71Z"/><path class="cls-2" d="M1488.94,1704.38a44.29,44.29,0,0,0,0-14.62c-.29-2.42-1-4.79-1.47-7.16-.74-2.33-1.29-4.7-2.17-7s-1.67-4.57-2.72-6.77l-3.17-6.58-3.64-6.34c-1.14-2.16-2.68-4.09-4-6.14-11-16.22-24.86-30.3-39.28-43.87-7.32-6.73-14.71-13.48-22.28-20s-15.45-12.63-23.43-18.6-16.33-11.46-24.75-16.74c-4.23-2.62-8.48-5.18-12.81-7.56-2.15-1.23-4.35-2.33-6.51-3.48a69,69,0,0,0-6.4-3l-.69-.27-.54-.59c-3-3.33-6.19-6.64-9.33-9.92s-6.27-6.58-9.47-9.81q-9.56-9.72-19.6-18.89c-3.29-3.11-6.68-6.09-10.06-9.1s-6.84-5.89-10.36-8.65-7.1-5.47-10.74-8l-5.55-3.63-5.72-3.14-.75-.41-.31-.34a136.6,136.6,0,0,1-11.39-14.57c-3.52-5-6.62-10.23-9.7-15.45s-6-10.54-8.71-15.94-5.4-10.82-7.78-16.39l.67-.34c3.19,5.11,6.37,10.22,9.68,15.24s6.55,10.07,10,15c6.9,9.75,14.07,19.4,22.21,27.68l-1.05-.75c8.87,3.89,16.53,9.32,23.94,14.94a251.73,251.73,0,0,1,21,18.15q10,9.6,19.33,19.73c6.29,6.72,12.38,13.56,18.24,20.72l-1.23-.86a69.1,69.1,0,0,1,7,3.68c2.21,1.27,4.34,2.65,6.44,4,4.24,2.77,8.33,5.69,12.39,8.64,8.14,5.89,16,12.08,23.94,18.17s15.78,12.28,23.75,18.32,16,12,23.86,18.25a168.9,168.9,0,0,1,41.08,44.44,124.73,124.73,0,0,1,7.34,13.44l2.87,7.12c1,2.38,1.55,4.89,2.3,7.33s1.07,5,1.62,7.51c.19,1.27.27,2.56.41,3.83a30.49,30.49,0,0,1,.24,3.82,39.53,39.53,0,0,1-2,15.11Z"/><path class="cls-2" d="M1391.55,1480.32a120.58,120.58,0,0,1,18.61-4.15,153.69,153.69,0,0,1,19.06-1.69,161.44,161.44,0,0,1,19.17.52,167.7,167.7,0,0,1,19,2.61l-1,0c10.71-1.5,21.61-3,32.64-3.48a154,154,0,0,1,33.07,2,98.33,98.33,0,0,1,31.17,10.86,85.79,85.79,0,0,1,24.89,21.77l1.07,1.38-1.41,1.17c-3.82,3.19-8,5.06-12.17,7.07s-8.43,3.6-12.74,5.07c-8.6,3-17.25,5.68-26,8-17.48,4.66-35.06,8.84-52.75,12.36s-35.49,6.47-53.34,9-35.74,4.8-53.73,6.33l-.11-.74c17.58-4,35.2-7.71,52.8-11.45l52.79-11c17.59-3.63,35.21-7.08,52.64-11.23,8.7-2.12,17.41-4.18,26-6.71,4.28-1.25,8.53-2.53,12.68-4s8.31-3.15,11.59-5.58l-.34,2.55a70,70,0,0,0-23-22,74,74,0,0,0-30.49-9.47,152.31,152.31,0,0,0-32.15.69c-10.71,1.09-21.39,2.76-32.31,3.93l-.54.06-.51-.1c-6.07-1.22-12.17-2.35-18.34-3.09s-12.36-1.26-18.58-1.55-12.48-.23-18.73,0a168.5,168.5,0,0,0-18.74,1.67Z"/><path class="cls-2" d="M1324,1356.63c4.57-4.78,9.56-9.1,14.54-13.45s10.31-8.31,15.73-12.13,11.07-7.34,16.85-10.68a154.25,154.25,0,0,1,18.26-8.54l-1.36.92a288.88,288.88,0,0,1,21.9-22.39,195.08,195.08,0,0,1,24.75-19.43c8.76-5.74,18.13-10.74,28.28-13.73,2.57-.61,5.13-1.3,7.72-1.85,2.63-.34,5.26-.82,7.91-1,2.66,0,5.34-.16,8-.09l8,.82,2.46.26-.63,2.35-.66,2.43c-.24.82-.52,1.37-.78,2.06-.52,1.33-1.06,2.66-1.65,3.91-1.12,2.56-2.35,5-3.62,7.49-2.51,4.93-5.14,9.78-7.84,14.58q-8.28,14.31-17.34,28.16c-3,4.6-6.16,9.16-9.47,13.59s-6.68,8.84-10.21,13.12c-7.14,8.51-14.73,16.78-24.32,23.4l.48-.4-10.81,10-10.93,9.87c-3.64,3.28-7.26,6.59-11,9.79s-7.37,6.47-11.13,9.62l-.51-.55c3.2-3.73,6.49-7.36,9.76-11s6.58-7.26,9.91-10.85l10-10.77,10.08-10.64.48-.4c2-1.74,4-3.22,5.94-5.06s3.8-3.66,5.57-5.67l5.34-6,5.12-6.24c3.28-4.29,6.62-8.54,9.82-12.92s6.31-8.83,9.5-13.22c6.25-8.9,12.23-18,18-27.25,2.92-4.6,5.77-9.24,8.49-13.93,1.37-2.34,2.69-4.7,4-7,.69-1.18,1.27-2.35,1.85-3.53.27-.56.65-1.22.83-1.72s.37-1,.59-1.48l1.82,2.61a61.46,61.46,0,0,0-30,.07,79.64,79.64,0,0,0-27.41,13.51c-8.27,6.13-15.57,13.44-22.58,20.95s-13.67,15.4-20.62,23.13l-.56.63-.8.29a158.82,158.82,0,0,0-17.59,7.72c-5.76,2.93-11.36,6.19-17,9.51s-11,6.92-16.46,10.58-10.8,7.41-16.16,11.22Z"/><path class="cls-2" d="M1240,1296a27.76,27.76,0,0,1,1.89-8.83,20,20,0,0,1,5.35-7.86l-.42,2.92c-4.8-6.09-7.71-12.82-10.39-19.69a98.34,98.34,0,0,1-5.39-21.42,68.07,68.07,0,0,1,.87-22.23c1.54-7.25,4.46-14.47,9.81-19.82l.25-.25.33-.06c3.87-.72,7.45.87,10.42,2.65a53.07,53.07,0,0,1,8.14,6.49,121.77,121.77,0,0,1,13.5,15.45c4.07,5.48,7.73,11.19,11.31,16.92s7,11.55,10.3,17.36l.18.32.12.34c2.17,6.12,2.76,12.24,3.23,18.27a140,140,0,0,1-.07,18q-.51,8.91-1.83,17.71c-.42,2.94-.91,5.86-1.5,8.76s-1.13,5.81-1.88,8.69l-.74-.1c.07-5.9,0-11.78,0-17.64s-.11-11.69-.32-17.5c-.1-2.9-.29-5.79-.42-8.67s-.47-5.74-.8-8.57a81.48,81.48,0,0,0-3.24-16.29l.3.65c-3.37-5.85-6.43-11.78-9.69-17.6s-6.56-11.58-10-17.23a138.69,138.69,0,0,0-11.14-16.34,39,39,0,0,0-7-6.76,17.76,17.76,0,0,0-4.12-2.23,9.25,9.25,0,0,0-4.37-.43l.58-.31c-4.94,4.87-7.31,11.86-7.72,18.74s.58,13.89,1.79,20.73a180.26,180.26,0,0,0,5,20.35c1,3.36,2.17,6.68,3.45,9.92a63.9,63.9,0,0,0,4.36,9.33l1.11,1.91-1.54,1a19,19,0,0,0-5.42,5.74,35.74,35.74,0,0,0-3.62,7.7Z"/><path class="cls-2" d="M1485.53,1711.43,1373.31,1648q-56-31.87-112.26-63.3c-9.37-5.23-18.76-10.45-28.19-15.51l-28.51-15c-19-10.14-37.77-20.53-56.77-30.42-9.5-4.91-19.06-9.79-28.76-13.93-2.41-1-4.84-2-7.25-2.81a29.65,29.65,0,0,0-3.53-1l-1-.24a9.12,9.12,0,0,1-1.47-.47,16.11,16.11,0,0,1-2.24-1.12c-5.12-3.17-9-6.81-13.12-10.47-15.91-14.81-30.48-30.61-45.12-46.39-29.06-31.73-57.16-64.26-85.66-96.39-7.12-8-14.26-16.06-21.51-24s-14.76-15.57-22.2-23.29c-14.94-15.35-30.51-30.21-48.08-42.37a146.4,146.4,0,0,0-27.94-15.36,104.4,104.4,0,0,0-30.84-7.51c-21.37-.78-42.93-1.08-64.38-1.65-43-1.08-85.92-1.82-128.87-2.66l-2,0,.06-1.94a318,318,0,0,1,8.24-61.44A300,300,0,0,1,641.88,1112a230.74,230.74,0,0,1,33.36-52.53,191.49,191.49,0,0,1,47.61-40.32l1.08-.64,1.26.22c67.3,11.8,134.78,22.93,202.37,32.76l25.35,3.65c4.21.58,8.56,1.28,12.82,2s8.54,1.61,12.76,2.67a204.77,204.77,0,0,1,48.88,18.1,210.24,210.24,0,0,1,42.54,30.07c12.9,11.62,24.49,24.5,35.52,37.63l16.42,19.69c5.47,6.55,11.09,12.77,16.86,19.18,11.46,12.75,22.56,25.83,33.5,39s21.76,26.32,33.43,38.64c5.82,6.16,11.86,12.18,18.08,17.84a153.63,153.63,0,0,0,20,15.32c7.08,4.59,14.52,8.87,21.78,13.45S1279.93,1318,1287,1323c14,9.91,27.59,20.45,40.57,31.61s25.74,22.64,37.67,35a222.93,222.93,0,0,1,16.91,19.39,90.21,90.21,0,0,1,7.13,10.75,39.73,39.73,0,0,1,2.72,5.88,19.7,19.7,0,0,1,.84,3.17,6.91,6.91,0,0,1-.09,3.4l-.67-.33c.43-1.79-.23-4-.93-5.93a37.31,37.31,0,0,0-2.8-5.67,87,87,0,0,0-7.29-10.43,220.81,220.81,0,0,0-17.25-18.82c-12.15-12-25.13-23.07-38.33-33.87-6.68-5.32-13.21-10.8-20.08-15.83s-13.75-10.07-20.78-14.86-14.17-9.43-21.47-13.8-14.74-8.54-22.08-13.12a159.41,159.41,0,0,1-20.93-15.46c-6.54-5.72-12.64-11.76-18.64-18-12-12.39-23-25.56-34.07-38.57s-22.23-25.89-33.75-38.45c-5.74-6.23-11.65-12.64-17.2-19.16l-16.64-19.52c-11.07-12.94-22.38-25.57-34.94-36.8a202.24,202.24,0,0,0-41.06-28.89,196.82,196.82,0,0,0-47.08-17.31c-4.08-1-8.22-1.76-12.35-2.56s-8.26-1.33-12.52-1.91l-25.42-3.6c-33.87-5-67.63-10.51-101.36-16.17s-67.42-11.59-101.09-17.72l2.34-.42A187.63,187.63,0,0,0,680,1063.53a223.93,223.93,0,0,0-33,50.85,300.32,300.32,0,0,0-20.39,57.45c-2.45,9.89-4.43,19.91-6,30a266.7,266.7,0,0,0-3,30.37l-1.91-2c42.95,1.39,85.9,2.87,128.86,4,21.49.68,42.9,1.08,64.47,2a108.27,108.27,0,0,1,31.58,7.5,148.55,148.55,0,0,1,28.53,15.43c17.93,12.17,33.57,27.19,48.87,42.29,7.6,7.63,15.21,15.18,22.66,23s14.69,15.72,22,23.64c29,31.73,57.76,63.66,87,95,14.65,15.64,29.33,31.38,45,45.77,3.9,3.5,8,7.13,12,9.59a11.45,11.45,0,0,0,1.36.68c.24.13.31.08.44.15a2.06,2.06,0,0,0,.41.1l.56.12a38.68,38.68,0,0,1,4.22,1.17c2.7.89,5.26,1.9,7.78,3,10.06,4.34,19.61,9.32,29.16,14.33,19.05,10.07,37.79,20.58,56.66,30.82l28.41,15.2q14.19,7.76,28.18,15.75,111.87,64.15,222.06,131.06Z"/><path class="cls-2" d="M1382.11,1487s-51-13.39-72-50.13c-8-17.32,13.75-46.46,30.91-43.37,19.33,3.47,69.69,51.92,69.69,51.92S1413.14,1468.52,1382.11,1487Z"/><path class="cls-2" d="M1457.33,1320s-3.22-15.07,36.3-67.14l16.41,8.87S1480.89,1311.49,1457.33,1320Z"/><path class="cls-2" d="M1281.07,1239.75s-6.9,13-24-11.88L1239.86,1203s7.44-4.33,9.15-8.7a4,4,0,0,1,5.82-2.17C1264.29,1198.32,1273,1213.76,1281.07,1239.75Z"/><path class="cls-2" d="M1441,1685s39.47,23.11,59.26,22.53a37.38,37.38,0,0,1-1.58,10.52S1453.06,1706.33,1441,1685Z"/><path class="cls-2" d="M1526.06,1530.47s26,9,68.93-10.93c.28-8.92-4.23-13.34-4.23-13.34S1534.33,1523.77,1526.06,1530.47Z"/><path class="cls-2" d="M1241.78,1404.28a62.24,62.24,0,0,1,1.21-19.23,74.88,74.88,0,0,1,6.45-18.35c.8-1.43,1.5-2.91,2.38-4.28l2.68-4.11c.92-1.35,2-2.57,3-3.85l1.55-1.89c.56-.6,1.17-1.15,1.75-1.73a51.87,51.87,0,0,1,15.82-11.07c-4.62,4.49-9.23,8.64-12.91,13.65a89.56,89.56,0,0,0-9.88,15.54,122.92,122.92,0,0,0-7.14,17.09A180.75,180.75,0,0,0,1241.78,1404.28Z"/><path class="cls-2" d="M1210.9,1383.21a71.94,71.94,0,0,1,2.44-17.93,87.34,87.34,0,0,1,6.26-17.11,69,69,0,0,1,10.32-15.17,42.31,42.31,0,0,1,14.94-10.43,82.66,82.66,0,0,0-11.94,12.9,116.74,116.74,0,0,0-8.86,14.92c-2.65,5.18-4.85,10.6-7,16.06S1212.89,1377.51,1210.9,1383.21Z"/><path class="cls-2" d="M1326.16,1583.77c1.76-3.16,3.7-6,5.48-8.85s3.49-5.71,5-8.62a60.85,60.85,0,0,0,3.83-9,57.51,57.51,0,0,0,2-9.94,20.07,20.07,0,0,1,1.82,10.69,29.45,29.45,0,0,1-3.22,10.49,36.11,36.11,0,0,1-6.36,8.73A33.37,33.37,0,0,1,1326.16,1583.77Z"/><path class="cls-2" d="M1216.55,1492.22c6.39-4.11,12.44-7.81,18.18-12,2.87-2.09,5.62-4.31,8.36-6.63s5.25-4.88,8.13-7.45a30.19,30.19,0,0,1-5.31,10.11,41.05,41.05,0,0,1-8.24,8,45.69,45.69,0,0,1-10,5.5A33.34,33.34,0,0,1,1216.55,1492.22Z"/><path class="cls-2" d="M1418.48,1645.43c3-5.13,6.34-9.39,9.23-13.88a68.86,68.86,0,0,0,4-6.81,40.28,40.28,0,0,0,2.87-7.71,14.33,14.33,0,0,1,.84,9,24,24,0,0,1-3.55,8.3,30.53,30.53,0,0,1-5.85,6.6A25.15,25.15,0,0,1,1418.48,1645.43Z"/><path class="cls-2" d="M1475.41,1520.62c-1.09-5.83-1.44-11.2-2.16-16.49-.37-2.64-.78-5.22-1.39-7.78a42.23,42.23,0,0,0-2.6-7.83,14.64,14.64,0,0,1,6.25,6.4,25.5,25.5,0,0,1,2.68,8.55,32.33,32.33,0,0,1-.09,8.79A24.67,24.67,0,0,1,1475.41,1520.62Z"/><path class="cls-2" d="M1396.5,1321.19a15,15,0,0,1,6,4,26.12,26.12,0,0,1,4.17,5.68,28.85,28.85,0,0,1,2.64,6.47,21.93,21.93,0,0,1,.79,7.09,35,35,0,0,1-4.36-5.48c-1.26-1.86-2.35-3.76-3.42-5.67s-2-3.85-3-5.82S1397.49,1323.44,1396.5,1321.19Z"/><path class="cls-2" d="M1257.64,1282.91a10.08,10.08,0,0,1,5.09-3.29,15.51,15.51,0,0,1,6-.57,15.7,15.7,0,0,1,5.7,1.71,12.58,12.58,0,0,1,4.56,3.89,38.62,38.62,0,0,1-5.69-.15c-1.75-.17-3.42-.29-5.08-.5Z"/><path class="cls-2" d="M453.82,671.12c-1.58-3.42,1.53-7.78,5-7.29a5.6,5.6,0,0,0-5.15,5.63A10.22,10.22,0,0,0,453.82,671.12Z"/><path class="cls-2" d="M453.71,669.46a5.6,5.6,0,0,1,5.15-5.63,4.63,4.63,0,0,1,2.37,1.19c.79.7,1.66,1.39,2.36,2.11a3.09,3.09,0,0,1,.07.91c.16,4.4.31,8.81.63,13.18-2.89-2.77-5.94-5.52-9.06-8.17a4.7,4.7,0,0,1-1.41-1.93A10.22,10.22,0,0,1,453.71,669.46Z"/><path class="cls-2" d="M461.23,665a4.63,4.63,0,0,0-2.37-1.19,4.17,4.17,0,0,1,4.73,3.3C462.89,666.41,462,665.72,461.23,665Z"/><path class="cls-2" d="M463.66,668a3.09,3.09,0,0,0-.07-.91c41.2,35.79,63.83,80.38,74.48,133.83,11.19,56.12,26.66,104.92,60.47,145.46-12.63-12-25.28-24.08-38.08-36.14a1.68,1.68,0,0,0-.26-1c-2.16-3.9-4.24-7.82-6.32-11.73a2,2,0,0,1-.27-.62A224.91,224.91,0,0,1,541.48,865c-9.8-33-11.73-67.81-22.64-100.41C508,732.14,489,704.32,464.29,681.22,464,676.85,463.82,672.44,463.66,668Z"/><path class="cls-2" d="M453.82,671.12a4.7,4.7,0,0,0,1.41,1.93c3.12,2.65,6.17,5.4,9.06,8.17.07,1.41.15,2.9.32,4.38-2.24-1.38-5.46,1.33-3.34,3.49,1.41,1.43,2.74,2.88,4,4.42a392.69,392.69,0,0,0,74.66,197.57q-14.7-13.58-29.67-26.86A401.54,401.54,0,0,1,453.82,671.12Z"/><path class="cls-2" d="M461.27,689.09c-2.12-2.16,1.1-4.87,3.34-3.49.11,2.65.3,5.3.66,7.91C464,692,462.68,690.52,461.27,689.09Z"/><path class="cls-2" d="M464.61,685.6a2.67,2.67,0,0,1,.57.41c26.54,27.13,30.52,67.74,41.94,102.35a712.26,712.26,0,0,0,46.49,108.53,2,2,0,0,0,.27.62c2,4.27,4.1,8.5,6.39,12.63-3.49-3.34-7.06-6.67-10.63-10a716.22,716.22,0,0,1-43.45-98.93c-12.24-35.05-16.33-78.74-40.92-107.71C464.91,690.9,464.72,688.25,464.61,685.6Z"/><path class="cls-2" d="M250.08,775.73c65.2-26.34,129.72-11.44,185.76,28.62,25.74,18.41,50.38,38.67,74.42,59.87A388.58,388.58,0,0,0,537.75,905c-24-21.72-48.06-43.33-72.58-64.36-54.52-46.92-116.91-80.48-186.91-63.37-3.54-.16-7.05-.15-10.56-.15a2.7,2.7,0,0,0-2.58,2c-3.29-1.12-6.54-2.08-9.86-2.94-5.69-1.56-9.3,6.32-4.95,8.85C246.72,783.56,245.47,777.59,250.08,775.73Z"/><path class="cls-2" d="M250.31,785.05c-4.35-2.53-.74-10.41,4.95-8.85,3.32.86,6.57,1.82,9.86,2.94a2.79,2.79,0,0,0,.05,1.83c-3.72,1.21-7.43,2.5-11.19,4a5.18,5.18,0,0,1-3.22.21C250.58,785.17,250.49,785.1,250.31,785.05Z"/><path class="cls-2" d="M265.12,779.14a2.7,2.7,0,0,1,2.58-2c3.51,0,7,0,10.56.15A90.52,90.52,0,0,0,268.19,780,15,15,0,0,0,265.12,779.14Z"/><path class="cls-2" d="M265.12,779.14a15,15,0,0,1,3.07.9c-1,.26-2,.58-3,.93A2.79,2.79,0,0,1,265.12,779.14Z"/><path class="cls-2" d="M268.19,780a90.52,90.52,0,0,1,10.07-2.78c58.52,2.12,110.4,28.33,158.64,60.76,50.6,34,96.32,79.26,148.85,110.88,1.29,1.21,2.67,2.48,4,3.67a.64.64,0,0,1,.21.3c2.77,3,5.54,6.09,8.38,9-109.18-58.3-190-176.94-323.33-179.77Q271.61,781,268.19,780Z"/><path class="cls-2" d="M265.17,781c1-.35,2-.67,3-.93q3.42.93,6.87,2.1c-2.6-.06-5.27,0-7.94,0A2,2,0,0,1,265.17,781Z"/><path class="cls-2" d="M254,785c3.76-1.55,7.47-2.84,11.19-4a2,2,0,0,0,1.95,1.17c2.67,0,5.34-.06,7.94,0C393.76,820.53,491.29,904,599.69,963.19a242.22,242.22,0,0,0,20.76,19.08c-3.05-.74-6.19-1.47-9.3-2.11C490.61,917.42,385,822.17,251.57,785.59a2,2,0,0,1-.81-.36A5.18,5.18,0,0,0,254,785Z"/><path class="cls-2" d="M292.81,876.78c2.25-10.49,13.47-15.8,23.07-14.91,8.74.79,16.13,5.48,22.94,10.19a432.42,432.42,0,0,1,97.73,94.15,3.33,3.33,0,0,1,.65,1.39c-1,0-2,.09-3,.09a1.42,1.42,0,0,0-.26-.54,4.3,4.3,0,0,0-1.28-1.13,4.93,4.93,0,0,0-6-2.5c-3.65-2.31-7.23-4.72-10.82-7.2a425.25,425.25,0,0,0-82.73-76c-6-4.1-11.77-7.88-18.13-8.4a13.24,13.24,0,0,0-9,2.34c-.66-.47-1.41-.93-2.07-1.41-2.65-1.81-5.73,2.22-3,4,.66.47,1.31.86,2,1.34a2.57,2.57,0,0,0-.3.72c-.82,4.06,1.74,8.9,8.23,15.16a277,277,0,0,0,42.26,34.1l-1.14,1.7a9.36,9.36,0,0,0-1.11-.65,187.14,187.14,0,0,0-25.46-8.76,280.26,280.26,0,0,1-21.61-19.19C298.06,895.62,290.67,886.92,292.81,876.78Z"/><path class="cls-2" d="M300.93,876.84c-2.73-1.8.35-5.83,3-4,.66.48,1.41.94,2.07,1.41a6.58,6.58,0,0,0-2.09,1.94,6.41,6.41,0,0,0-1,2C302.24,877.7,301.59,877.31,300.93,876.84Z"/><path class="cls-2" d="M303.91,876.17a6.58,6.58,0,0,1,2.09-1.94c38.28,25.33,72.11,56.08,109.83,82.09,1.33,1.44,2.5,2.92,3.76,4.46-4.35-1.52-8.7-3-13-4.75C371.28,931,339.1,902.1,302.91,878.18A6.41,6.41,0,0,1,303.91,876.17Z"/><path class="cls-2" d="M229,936.47c.69-12.81,14.6-19.08,27.37-20.64a183.24,183.24,0,0,1,69,4.62,274.78,274.78,0,0,0,25.17,18,4.39,4.39,0,0,1-3.67,0,173.25,173.25,0,0,0-89.3-12.65c-8.26,1-18.12,4.55-18.57,11.31a4.75,4.75,0,0,0,.23,1.88c.79,3.71,4.36,7.54,10.8,11.56a188.63,188.63,0,0,0,95.31,28.53,160.11,160.11,0,0,0-29.49,7,197.29,197.29,0,0,1-71.16-27.07C240.6,956.51,228.27,948.81,229,936.47Z"/><path class="cls-2" d="M510.26,864.22q15,13.28,29.67,26.86c1.86,2.61,3.8,5.21,5.73,7.73,3.62,4.66-2.55,10.21-6.71,7.31a4.35,4.35,0,0,1-1.2-1.13A388.58,388.58,0,0,1,510.26,864.22Z"/><path class="cls-2" d="M240.77,938.6a2.17,2.17,0,0,1,2-2.69c29-1.77,56.55,6.3,84.53,12.63,26,5.91,51.89,11.84,77.95,17.74,2.41.93,4.83,1.86,7.23,2.71-2.44.91-4.91,1.66-7.47,2.34-22.06-5-44.14-10.05-66.21-15-31.2-7.13-63-17.41-95.28-15.41A2.67,2.67,0,0,1,240.77,938.6Z"/><path class="cls-2" d="M539.93,891.08c3.27,3,6.54,6.09,9.71,9.07,2,3.68,3.92,7.36,6,11,1.24,2.38,4.83,1.36,4.89-.74a237,237,0,0,0,27.32,39.71l-2-1.25c-15.6-14.26-31.12-28.53-46.8-42.78,4.16,2.9,10.33-2.65,6.71-7.31C543.73,896.29,541.79,893.69,539.93,891.08Z"/><path class="cls-2" d="M325.39,920.45a187.14,187.14,0,0,1,25.46,8.76,9.36,9.36,0,0,1,1.11.65,5.07,5.07,0,0,1,1.51,6,4.74,4.74,0,0,1-2.91,2.58A274.78,274.78,0,0,1,325.39,920.45Z"/><path class="cls-2" d="M352,929.86l1.14-1.7A282.85,282.85,0,0,0,406.59,956c4.73,3.3,9.55,6.59,14.36,9.87-2.19.87-4.4,1.66-6.61,2.45-3-.66-6.08-1.4-9-2.07a285.59,285.59,0,0,1-54.74-27.83,4.74,4.74,0,0,0,2.91-2.58A5.07,5.07,0,0,0,352,929.86Z"/><path class="cls-2" d="M553.88,897.51c2.08,3.91,4.16,7.83,6.32,11.73a1.68,1.68,0,0,1,.26,1c0-.08-.1-.07-.19-.14C558,906,555.85,901.78,553.88,897.51Z"/><path class="cls-2" d="M555.59,911.18c-2-3.67-4-7.35-6-11,3.57,3.32,7.14,6.65,10.63,10,0,.09,0,.17.21.3C560.42,912.54,556.83,913.56,555.59,911.18Z"/><path class="cls-2" d="M560.27,910.14c.09.07.17.06.19.14s.1.15,0,.16S560.28,910.23,560.27,910.14Z"/><path class="cls-2" d="M560.48,910.44c.08,0,.07-.09,0-.16,12.8,12.06,25.45,24.14,38.08,36.14A227.23,227.23,0,0,0,636.37,982c-11-5.26-21.79-10.8-32.55-16.6-.59-.56-1.18-1-1.77-1.62,2.94,1.6,6,3.08,9,4.58s4.71-3.3,1.88-4.74c-8.63-4.07-17-8.6-25.17-13.49A237,237,0,0,1,560.48,910.44Z"/><path class="cls-2" d="M419.59,960.78c-1.26-1.54-2.43-3-3.76-4.46,3.59,2.48,7.17,4.89,10.82,7.2-.16,0-.31.14-.47.17-1.71.78-3.51,1.51-5.23,2.21-4.81-3.28-9.63-6.57-14.36-9.87C410.89,957.73,415.24,959.26,419.59,960.78Z"/><path class="cls-2" d="M405.3,966.28c3,.67,6,1.41,9,2.07a15.61,15.61,0,0,1-1.81.64C410.13,968.14,407.71,967.21,405.3,966.28Z"/><path class="cls-2" d="M426.65,963.52a4.93,4.93,0,0,1,6,2.5,4.53,4.53,0,0,0-3.3-.78l-.1-.07C428.43,964.65,427.51,964.13,426.65,963.52Z"/><path class="cls-2" d="M426.18,963.69c.16,0,.31-.14.47-.17.86.61,1.78,1.13,2.62,1.65a4.82,4.82,0,0,0-2.44.91c-.81.64-1.7,1.29-2.52,1.93-1.12-.73-2.25-1.46-3.36-2.11C422.67,965.2,424.47,964.47,426.18,963.69Z"/><path class="cls-2" d="M421,965.9c1.11.65,2.24,1.38,3.36,2.11-.89.65-1.7,1.29-2.59,1.94l-.09,0c-2.42-.51-4.86-1.11-7.29-1.62C416.55,967.56,418.76,966.77,421,965.9Z"/><path class="cls-2" d="M315.87,986.15a160.11,160.11,0,0,1,29.49-7l.16,0a6.71,6.71,0,0,0,1.86.11l.08,0a5,5,0,0,1-.6,9.88l-.73.12A189.78,189.78,0,0,1,315.87,986.15Z"/><path class="cls-2" d="M347.38,979.19a6.71,6.71,0,0,1-1.86-.11A4.47,4.47,0,0,1,347.38,979.19Z"/><path class="cls-2" d="M426.83,966.08a4.82,4.82,0,0,1,2.44-.91l.1.07c.85.61,1.69,1.14,2.53,1.66a2.38,2.38,0,0,1,.82.87l-.25,0a4.37,4.37,0,0,0-1.45.33c0-.08-.09-.07-.16,0a.57.57,0,0,0-.35-.11,4.33,4.33,0,0,0-3.67,1.53L424.31,968C425.13,967.37,426,966.72,426.83,966.08Z"/><path class="cls-2" d="M431.9,966.9c-.84-.52-1.68-1-2.53-1.66a4.53,4.53,0,0,1,3.3.78c0,.08.11.15.12.23a5.16,5.16,0,0,1,.43,1.52,1.06,1.06,0,0,1-.5,0A2.38,2.38,0,0,0,431.9,966.9Z"/><path class="cls-2" d="M412.53,969a15.61,15.61,0,0,0,1.81-.64c2.43.51,4.87,1.11,7.29,1.62-.58.51-1.25,1-1.84,1.48C417.41,970.68,414.93,969.84,412.53,969Z"/><path class="cls-2" d="M405.06,971.33c2.56-.68,5-1.43,7.47-2.34,2.4.85,4.88,1.69,7.26,2.46-1.12.77-2.31,1.64-3.42,2.49C412.63,973.07,408.81,972.21,405.06,971.33Z"/><path class="cls-2" d="M432.79,966.25c0-.08-.1-.15-.12-.23a4.3,4.3,0,0,1,1.28,1.13,1.42,1.42,0,0,1,.26.54c-.33,0-.67,0-1,.08A5.16,5.16,0,0,0,432.79,966.25Z"/><path class="cls-2" d="M421.72,970c.89-.65,1.7-1.29,2.59-1.94l2.53,1.58a2.59,2.59,0,0,0-.95,1.33C424.51,970.65,423.11,970.3,421.72,970Z"/><path class="cls-2" d="M405.06,971.33c3.75.88,7.57,1.74,11.31,2.61-1.42,1-2.75,2-4.24,3.14-9.34,3.07-18.66,6.31-28,9.47a194,194,0,0,1-38,2.62l.73-.12a5,5,0,0,0,.6-9.88A185.55,185.55,0,0,0,405.06,971.33Z"/><path class="cls-2" d="M426.84,969.59a4.33,4.33,0,0,1,3.67-1.53.57.57,0,0,1,.35.11,3.91,3.91,0,0,0-2.25,2.55C428.06,970.39,427.41,970,426.84,969.59Z"/><path class="cls-2" d="M431,968.14a4.37,4.37,0,0,1,1.45-.33l.25,0a1.62,1.62,0,0,1,.25,1A3.6,3.6,0,0,0,431,968.14Z"/><path class="cls-2" d="M433,968.81a1.62,1.62,0,0,0-.25-1,1.06,1.06,0,0,0,.5,0,2.58,2.58,0,0,1-.06,1.18C433.06,968.8,433.06,968.8,433,968.81Z"/><path class="cls-2" d="M430.86,968.17c.07-.1.15-.11.16,0a3.6,3.6,0,0,1,2,.67.28.28,0,0,1,0,.26,5.52,5.52,0,0,0-2.55,2.19,1.93,1.93,0,0,1-1.48-.34l-.29-.2A3.91,3.91,0,0,1,430.86,968.17Z"/><path class="cls-2" d="M433.22,967.77c.32-.06.66,0,1-.08a2.71,2.71,0,0,1,.43,1.09,2.63,2.63,0,0,0-1.38.24c0-.17-.08,0-.08,0l0-.08A2.58,2.58,0,0,0,433.22,967.77Z"/><path class="cls-2" d="M434.21,967.69c1,0,2-.09,3-.09a3.46,3.46,0,0,1,.42,2,1.06,1.06,0,0,0-.47-.34,5.48,5.48,0,0,0-2.51-.5A2.71,2.71,0,0,0,434.21,967.69Z"/><path class="cls-2" d="M421.63,970l.09,0c1.39.35,2.79.7,4.17,1a4.58,4.58,0,0,0-.47,1.67,3.7,3.7,0,0,0-.95.33c-1.59-.49-3.09-1-4.68-1.47C420.38,970.93,421.05,970.48,421.63,970Z"/><path class="cls-2" d="M437.62,969.62a3.46,3.46,0,0,0-.42-2c58.57-3.07,116.84,0,174,12.56,6,3.16,12.08,6.24,18.25,9.13,1.07.91,2.21,1.72,3.35,2.53,1.18,1.06,2.37,2.19,3.55,3.25a7.28,7.28,0,0,0,1.33.94c-62.88-16.09-135.38-21.79-199.26-18.49l.77-1.38A5,5,0,0,0,437.62,969.62Z"/><path class="cls-2" d="M426.84,969.59c.57.41,1.22.8,1.77,1.13a3.33,3.33,0,0,0-.28.8c-.79-.21-1.65-.39-2.44-.6A2.59,2.59,0,0,1,426.84,969.59Z"/><path class="cls-2" d="M433,968.81c.09,0,.09,0,.19.14l0,.08-.25,0A.28.28,0,0,0,433,968.81Z"/><path class="cls-2" d="M433.26,969a2.63,2.63,0,0,1,1.38-.24,3.8,3.8,0,0,1,.19,2.14A3.53,3.53,0,0,0,433.26,969Z"/><path class="cls-2" d="M433.18,969s.05-.18.08,0a3.53,3.53,0,0,1,1.57,1.9,5.28,5.28,0,0,1-.87,2.24,7.07,7.07,0,0,1-1.09,1,1.15,1.15,0,0,1-.58,0,2.73,2.73,0,0,0-.86-2.11,3.52,3.52,0,0,0,.79-.8A5,5,0,0,0,433.18,969Z"/><path class="cls-2" d="M432.93,969.07l.25,0a5,5,0,0,1-1,2.25,3.52,3.52,0,0,1-.79.8,2,2,0,0,0-1.11-.65v-.08l.07-.09A2.66,2.66,0,0,0,432.93,969.07Z"/><path class="cls-2" d="M434.83,970.92a3.8,3.8,0,0,0-.19-2.14,5.48,5.48,0,0,1,2.51.5,1.06,1.06,0,0,1,.47.34,5.4,5.4,0,0,1-1,2.59,5,5,0,0,1-1,1,.47.47,0,0,1-.32.14c.07-.1.07-.1.06-.18A3.71,3.71,0,0,0,434.83,970.92Z"/><path class="cls-2" d="M419.79,971.45c1.59.48,3.09,1,4.68,1.47-1.67.53-3.41,1.07-5.07,1.68-1-.16-2-.41-3-.66C417.48,973.09,418.67,972.22,419.79,971.45Z"/><path class="cls-2" d="M425.89,970.92c.79.21,1.65.39,2.44.6v.08l-2.92,1A4.58,4.58,0,0,1,425.89,970.92Z"/><path class="cls-2" d="M428.33,971.52a3.33,3.33,0,0,1,.28-.8l.29.2a1.93,1.93,0,0,0,1.48.34l-.07.09v.08l-.08,0a2,2,0,0,0-1.42,0c-.08,0-.25,0-.31.14C428.41,971.5,428.41,971.5,428.33,971.52Z"/><path class="cls-2" d="M430.38,971.26a5.52,5.52,0,0,1,2.55-2.19A2.66,2.66,0,0,1,430.38,971.26Z"/><path class="cls-2" d="M428.82,971.43a2,2,0,0,1,1.42,0,1.36,1.36,0,0,1-.26.46c-.09-.07-.17-.06-.35-.11a5.72,5.72,0,0,0-1.12-.23C428.57,971.47,428.74,971.45,428.82,971.43Z"/><path class="cls-2" d="M428.33,971.52c.08,0,.08,0,.18.05l-.17,0Z"/><path class="cls-2" d="M428.34,971.6l.17,0a5.72,5.72,0,0,1,1.12.23c.18.05.26,0,.35.11a9.23,9.23,0,0,1-.64,1.11,1.57,1.57,0,0,1-.4-.35,1.54,1.54,0,0,1-.62.27A3.78,3.78,0,0,1,428.34,971.6Z"/><path class="cls-2" d="M425.42,972.59l2.92-1a3.78,3.78,0,0,0,0,1.34,4.63,4.63,0,0,1-3,.25.28.28,0,0,0,0-.26C425.38,972.85,425.43,972.67,425.42,972.59Z"/><path class="cls-2" d="M430.24,971.45l.08,0a2,2,0,0,1,1.11.65,1.69,1.69,0,0,1-.59.44,2.13,2.13,0,0,0-.86-.61A1.36,1.36,0,0,0,430.24,971.45Z"/><path class="cls-2" d="M412.13,977.08c1.49-1.09,2.82-2.14,4.24-3.14,1,.25,2,.5,3,.66C417,975.43,414.5,976.26,412.13,977.08Z"/><path class="cls-2" d="M434.83,970.92a3.71,3.71,0,0,1,.55,2.25c0,.08,0,.08-.06.18a4.07,4.07,0,0,1-2.45.83,7.07,7.07,0,0,0,1.09-1A5.28,5.28,0,0,0,434.83,970.92Z"/><path class="cls-2" d="M424.47,972.92a3.7,3.7,0,0,1,.95-.33c0,.08,0,.26,0,.34a.28.28,0,0,1,0,.26c-.09-.07-.26,0-.35-.11Z"/><path class="cls-2" d="M429.34,973a9.23,9.23,0,0,0,.64-1.11,2.13,2.13,0,0,1,.86.61c-.15.1-.38.23-.61.35s-.47.16-.71.28C429.43,973.09,429.35,973.1,429.34,973Z"/><path class="cls-2" d="M419.4,974.6c1.66-.61,3.4-1.15,5.07-1.68l.53.16c.09.07.26,0,.35.11a11.56,11.56,0,0,1,0,1.76h-.08a13.17,13.17,0,0,0-1.56.68C422.28,975.29,420.8,975,419.4,974.6Z"/><path class="cls-2" d="M430.84,972.52a1.69,1.69,0,0,0,.59-.44,2.73,2.73,0,0,1,.86,2.11,1.28,1.28,0,0,1-.6-.06A2.66,2.66,0,0,0,430.84,972.52Z"/><path class="cls-2" d="M425.31,975a11.56,11.56,0,0,0,0-1.76,4.63,4.63,0,0,0,3-.25l.11.65v.08Z"/><path class="cls-2" d="M428.32,972.94a1.54,1.54,0,0,0,.62-.27,1.57,1.57,0,0,0,.4.35c0,.08-.06.17-.13.27a3,3,0,0,1-.78.3Z"/><path class="cls-2" d="M436.64,972.21a5.4,5.4,0,0,0,1-2.59,5,5,0,0,1,1.52,6.52l-.77,1.38c-1.07.09-2.16.11-3.23.21.09-1.44.19-2.88.18-4.38a.47.47,0,0,0,.32-.14A5,5,0,0,0,436.64,972.21Z"/><path class="cls-2" d="M430.23,972.87c.23-.12.46-.25.61-.35a2.66,2.66,0,0,1,.85,1.61,4.67,4.67,0,0,1-2.17-1C429.76,973,430,973,430.23,972.87Z"/><path class="cls-2" d="M412.13,977.08c2.37-.82,4.82-1.65,7.27-2.48,1.4.35,2.88.69,4.27,1-5.81,2.23-11.66,4.22-17.64,5.89C408.11,980,410.11,978.51,412.13,977.08Z"/><path class="cls-2" d="M429.34,973c0,.08.09.07.18.13s-.23.13-.31.14C429.28,973.19,429.35,973.1,429.34,973Z"/><path class="cls-2" d="M429.21,973.29c.08,0,.25,0,.31-.14a4.67,4.67,0,0,0,2.17,1,2.08,2.08,0,0,1-.08,1c-.52.34-1,.76-1.57,1.1l-.06.1h-.08a7.06,7.06,0,0,1-1.28-2.12A2.32,2.32,0,0,0,429.21,973.29Z"/><path class="cls-2" d="M429.21,973.29a2.32,2.32,0,0,1-.59.94c0-.17-.14-.32-.18-.56v-.08A3,3,0,0,0,429.21,973.29Z"/><path class="cls-2" d="M425.31,975l3.13-1.28c0,.24.15.39.18.56a11.43,11.43,0,0,1-1.22,2.21c-.69-.14-1.48-.34-2.17-.48a3.72,3.72,0,0,0,0-1Z"/><path class="cls-2" d="M315.87,986.15a189.78,189.78,0,0,0,30.26,3c-29.64,4.15-58,18.7-76.65,30.27-4.39,2.74-10.86,8-11.6,13.07a5.82,5.82,0,0,0,.43,3.52c2.47,5.27,12.13,5.06,16.18,4.8a156.5,156.5,0,0,0,27.4-4.6l.64,2.31a5.26,5.26,0,0,0-2.33,1.06,48.24,48.24,0,0,0-8.35,9,143.24,143.24,0,0,1-16.68,2.22c-13.11,1-22.36-2.76-25.92-10.52-5.37-11.55,4.2-22.77,14.95-29.42C277.52,1002.63,295.61,992.9,315.87,986.15Z"/><path class="cls-2" d="M427.4,976.44a11.43,11.43,0,0,0,1.22-2.21,7.06,7.06,0,0,0,1.28,2.12c-.4.15-.8.22-1.2.37h-.08C428.19,976.64,427.84,976.53,427.4,976.44Z"/><path class="cls-2" d="M412.13,977.08c-2,1.43-4,2.93-6.1,4.45a183.58,183.58,0,0,1-21.89,5C393.47,983.39,402.79,980.15,412.13,977.08Z"/><path class="cls-2" d="M425.23,975a3.72,3.72,0,0,1,0,1,11.08,11.08,0,0,0-1.56-.32A13.17,13.17,0,0,1,425.23,975Z"/><path class="cls-2" d="M435.32,973.35c0,1.5-.09,2.94-.18,4.38-.42,0-.83,0-1.25,0a5.27,5.27,0,0,1-3.6-1.07,1.82,1.82,0,0,0,1.16-1,1.8,1.8,0,0,0,.76-1l.07-.1c.23-.12.36-.31.59-.43A4.07,4.07,0,0,0,435.32,973.35Z"/><path class="cls-2" d="M423.67,975.64a11.08,11.08,0,0,1,1.56.32,7,7,0,0,1-.17,2V978c-8.87,2.91-17.73,5.9-26.58,8.9,2.54-1.77,5.09-3.53,7.54-5.37C412,979.86,417.86,977.87,423.67,975.64Z"/><path class="cls-2" d="M431.69,974.13a1.28,1.28,0,0,0,.6.06c0,.17,0,.26,0,.42l-.07.1a5.55,5.55,0,0,0-.6.43A2.08,2.08,0,0,0,431.69,974.13Z"/><path class="cls-2" d="M432.29,974.19a1.15,1.15,0,0,0,.58,0c-.23.12-.36.31-.59.43C432.25,974.45,432.32,974.36,432.29,974.19Z"/><path class="cls-2" d="M431.61,975.14a5.55,5.55,0,0,1,.6-.43,1.8,1.8,0,0,1-.76,1A.68.68,0,0,0,431.61,975.14Z"/><path class="cls-2" d="M585.75,948.9l2,1.25c.64.81,1.36,1.61,2,2.42C588.42,951.38,587,950.11,585.75,948.9Z"/><path class="cls-2" d="M425.06,977.92a7,7,0,0,0,.17-2c.69.14,1.48.34,2.17.48a2,2,0,0,1-.51.92Z"/><path class="cls-2" d="M430,976.24c.53-.34,1-.76,1.57-1.1a.68.68,0,0,1-.16.53,1,1,0,0,1-.69.37C430.52,976.08,430.29,976.2,430,976.24Z"/><path class="cls-2" d="M430.76,976a1,1,0,0,0,.69-.37,1.82,1.82,0,0,1-1.16,1,1.46,1.46,0,0,1-.31-.36l.06-.1C430.29,976.2,430.52,976.08,430.76,976Z"/><path class="cls-2" d="M427.4,976.44c.44.09.79.2,1.22.29-.55.18-1.18.45-1.73.63A2,2,0,0,0,427.4,976.44Z"/><path class="cls-2" d="M428.7,976.72c.4-.15.8-.22,1.2-.37a5.42,5.42,0,0,1-.59.52.33.33,0,0,1-.25,0C429,976.76,428.8,976.79,428.7,976.72Z"/><path class="cls-2" d="M429.9,976.35H430a1.46,1.46,0,0,0,.31.36,1.38,1.38,0,0,1-1,.17A5.42,5.42,0,0,0,429.9,976.35Z"/><path class="cls-2" d="M426.89,977.36c.55-.18,1.18-.45,1.73-.63h.08c.1.07.26,0,.36.11a.33.33,0,0,0,.25,0c-1.19.87-2.38,1.73-3.64,2.7C426.13,978.82,426.51,978.09,426.89,977.36Z"/><path class="cls-2" d="M589.8,952.57c-.64-.81-1.36-1.61-2-2.42C596,955,604.34,959.57,613,963.64c2.83,1.44,1,6.09-1.88,4.74s-6.1-3-9-4.58c-4-3.67-8-7.27-12-10.93A.64.64,0,0,0,589.8,952.57Z"/><path class="cls-2" d="M425.67,979.57c1.26-1,2.45-1.83,3.64-2.7a1.38,1.38,0,0,0,1-.17,5.27,5.27,0,0,0,3.6,1.07c.42,0,.83-.06,1.25,0a53.31,53.31,0,0,1-.59,6.45c-2.71,4.72-5.62,9.3-8.8,13.76,1.1-1.94,2-3.93,2.93-5.92,1.35-2.9-3.3-4.71-4.65-1.81-.19.36-.31.63-.5,1a99.21,99.21,0,0,0,1.34-10.42,3.44,3.44,0,0,0,.72-1.21Z"/><path class="cls-2" d="M425.06,977.92l1.83-.56c-.38.73-.76,1.46-1.22,2.21h-.08c-.22.21-.45.33-.66.53a8.18,8.18,0,0,0,.14-2.11Z"/><path class="cls-2" d="M398.49,986.9c8.85-3,17.71-6,26.58-8.9a8.18,8.18,0,0,1-.14,2.11C391.65,1004.93,352.3,1032.85,308,1045a5,5,0,0,0-.78-4.63,5.11,5.11,0,0,0-4.73-1.8l-.64-2.31C337.17,1027.37,369.68,1007.45,398.49,986.9Z"/><path class="cls-2" d="M406,981.53c-2.45,1.84-5,3.6-7.54,5.37q-68.65,23.45-136.6,48.53c-2,.84-3.72-1.22-3.49-2.84a2.29,2.29,0,0,1,1.54-1.77q61.86-22.8,124.2-44.27A183.58,183.58,0,0,0,406,981.53Z"/><path class="cls-2" d="M435.14,977.73c1.07-.1,2.16-.12,3.23-.21-1.21,2.29-2.42,4.5-3.82,6.66A53.31,53.31,0,0,0,435.14,977.73Z"/><path class="cls-2" d="M424.93,980.11c.21-.2.44-.32.66-.53a3.44,3.44,0,0,1-.72,1.21A2,2,0,0,0,424.93,980.11Z"/><path class="cls-2" d="M590,952.87c4,3.66,8,7.26,12,10.93-1.26-.54-2.47-1.26-3.66-1.89C595.55,959,592.78,955.91,590,952.87Z"/><path class="cls-2" d="M424,990.21c1.35-2.9,6-1.09,4.65,1.81-.92,2-1.83,4-2.93,5.92.1.07-.05.18-.05.18-1.61,2.36-3.3,4.73-5,7-.28.3-.47.67-.75,1a119.79,119.79,0,0,0,3.59-14.9C423.72,990.84,423.84,990.57,424,990.21Z"/><path class="cls-2" d="M424.87,980.79a99.21,99.21,0,0,1-1.34,10.42,269.77,269.77,0,0,1-17.76,32.07A245.31,245.31,0,0,1,325,1082a3.18,3.18,0,0,1,.43-.91,5,5,0,0,0-5.88-7.62A234.47,234.47,0,0,0,424.87,980.79Z"/><path class="cls-2" d="M599.69,963.19a15.79,15.79,0,0,1-1.3-1.28c1.19.63,2.4,1.35,3.66,1.89.59.57,1.18,1.06,1.77,1.62C602.44,964.65,601.07,964,599.69,963.19Z"/><path class="cls-2" d="M425.75,997.94c3.18-4.46,6.09-9,8.8-13.76-3.38,31.57-17.73,59.06-34.15,81.21a264.17,264.17,0,0,1-18.67,22.19c-2.06,2.19-4.13,4.29-6.13,6.3-5.74,5.64-12.52,12-21.19,15.68-9.91,4.17-20.71,3.56-28.33-1.51-5.18-3.47-9.63-11-11.07-18.62a12.89,12.89,0,0,1-.28-3.13c3.46-1.33,6.9-2.74,10.31-4.32a10.35,10.35,0,0,0-.14,5.62c.9,4.87,3.87,10.14,6.79,12.07,5.75,3.88,13.43,2.84,18.82.6,6.95-2.93,12.94-8.53,17.95-13.55,17.7-17.52,38-42.57,48.79-72.72,3-5.18,5.85-10.43,8.45-15.88C425.7,998.12,425.85,998,425.75,997.94Z"/><path class="cls-2" d="M599.69,963.19c1.38.77,2.75,1.46,4.13,2.23,6.34,5.88,12.74,11.65,19.07,17.44-.79-.2-1.66-.39-2.44-.59A242.22,242.22,0,0,1,599.69,963.19Z"/><path class="cls-2" d="M420.69,1005.14c1.71-2.29,3.4-4.66,5-7-2.6,5.45-5.48,10.7-8.45,15.88a70.62,70.62,0,0,0,2.69-7.89C420.22,1005.81,420.41,1005.44,420.69,1005.14Z"/><path class="cls-2" d="M423.53,991.21a119.79,119.79,0,0,1-3.59,14.9q-6.66,8.88-14.17,17.17A269.77,269.77,0,0,0,423.53,991.21Z"/><path class="cls-2" d="M419.94,1006.11a70.62,70.62,0,0,1-2.69,7.89q-29.61,51.36-79.72,85.61c-2.63,1.78-5.72-2.22-3-4a256.23,256.23,0,0,0,71.25-72.32Q413.29,1015,419.94,1006.11Z"/><path class="cls-2" d="M622.89,982.86c-6.33-5.79-12.73-11.56-19.07-17.44,10.76,5.8,21.55,11.34,32.55,16.6.77.62,1.62,1.23,2.48,1.84,1.1,1.07,2.26,2,3.36,3.11a.09.09,0,0,1,.1.07,5.4,5.4,0,0,1,.34,1C636.06,986.17,629.5,984.43,622.89,982.86Z"/><path class="cls-2" d="M598.54,946.42c13,12.19,25.81,24.25,38.73,36a4.89,4.89,0,0,0-.9-.43A227.23,227.23,0,0,1,598.54,946.42Z"/><path class="cls-2" d="M611.15,980.16c3.11.64,6.25,1.37,9.3,2.11q4.24,3.68,8.95,7C623.23,986.4,617.19,983.32,611.15,980.16Z"/><path class="cls-2" d="M620.45,982.27c.78.2,1.65.39,2.44.59,2.65,2.4,5.23,4.81,7.8,7.13a5.94,5.94,0,0,1-1.29-.7Q624.69,985.95,620.45,982.27Z"/><path class="cls-2" d="M630.69,990c-2.57-2.32-5.15-4.73-7.8-7.13,6.61,1.57,13.17,3.31,19.76,5.21a5.38,5.38,0,0,1-3.53,5.86C636.31,992.64,633.51,991.36,630.69,990Z"/><path class="cls-2" d="M636.37,982a4.89,4.89,0,0,1,.9.43c.51.5,1.09,1,1.58,1.41C638,983.25,637.14,982.64,636.37,982Z"/><path class="cls-2" d="M300.2,1039.6a5.26,5.26,0,0,1,2.33-1.06,5.11,5.11,0,0,1,4.73,1.8A5,5,0,0,1,308,1045a156.26,156.26,0,0,1-16.19,3.64A48.24,48.24,0,0,1,300.2,1039.6Z"/><path class="cls-2" d="M638.85,983.86c-.49-.42-1.07-.91-1.58-1.41,37.86,17.88,77.37,32.13,119.88,39.95a7.07,7.07,0,0,1,1.7.63,40.46,40.46,0,0,0-10.29,7.92,432.69,432.69,0,0,1-55.2-15.13,6.63,6.63,0,0,0,.87-.82c4.44-4.42-6.41-6.78-11.25-2.79q-15.36-5.57-30.38-12.19c5.66,1.39-1.89-9.71-8-11.44-.43-.09-.88-.27-1.31-.36a4.33,4.33,0,0,0-1-1.18.09.09,0,0,0-.1-.07,4.42,4.42,0,0,0-1.54-1.75C640,984.75,639.43,984.35,638.85,983.86Z"/><path class="cls-2" d="M638.85,983.86c.58.49,1.15.89,1.82,1.36a4.42,4.42,0,0,1,1.54,1.75C641.11,985.9,640,984.93,638.85,983.86Z"/><path class="cls-2" d="M629.4,989.29a5.94,5.94,0,0,0,1.29.7c.69.64,1.37,1.19,2.06,1.83C631.61,991,630.47,990.2,629.4,989.29Z"/><path class="cls-2" d="M642.65,988.07a5.4,5.4,0,0,0-.34-1,4.33,4.33,0,0,1,1,1.18C643.08,988.16,642.82,988.12,642.65,988.07Z"/><path class="cls-2" d="M632.75,991.82c-.69-.64-1.37-1.19-2.06-1.83,2.82,1.37,5.62,2.65,8.43,3.94a4.54,4.54,0,0,1-4.46-.68C634,992.78,633.33,992.31,632.75,991.82Z"/><path class="cls-2" d="M642.65,988.07c.17,0,.43.09.61.15a5.46,5.46,0,0,1-1.24,7.06,30.71,30.71,0,0,1-2.9-1.35A5.38,5.38,0,0,0,642.65,988.07Z"/><path class="cls-2" d="M643.26,988.22c.43.09.88.27,1.31.36,6.14,1.73,13.69,12.83,8,11.44-.08,0-.18-.06-.26,0-3.43-1.51-6.87-3.11-10.32-4.7A5.46,5.46,0,0,0,643.26,988.22Z"/><path class="cls-2" d="M291.85,1048.61A156.26,156.26,0,0,0,308,1045a4.55,4.55,0,0,1-1.6,2.44c-4.79,3.82-10.43,12-13.09,19.09-1.89,4.66-.58,11.46,3.72,13.16,2.86,1.11,6.62.14,11.34-1.65,3.45-1.34,6.9-2.67,10.25-4.15a7.39,7.39,0,0,0-1.44,1.41,16.44,16.44,0,0,0-2.49,11c-.93.41-1.87.82-2.81,1.15-5.9,2.24-12.29,4-18.47,1.51-10.18-3.89-13.17-16.67-9.48-26.07A65.66,65.66,0,0,1,291.85,1048.61Z"/><path class="cls-2" d="M632.75,991.82c.58.49,1.25,1,1.91,1.43a4.54,4.54,0,0,0,4.46.68,30.71,30.71,0,0,0,2.9,1.35,4.7,4.7,0,0,1-2.83,1.06l-.16,0c-.44-.1-.79-.21-1.14-.31-.08,0-.18-.06-.26,0a7.28,7.28,0,0,1-1.33-.94C635.12,994,633.93,992.88,632.75,991.82Z"/><path class="cls-2" d="M417.25,1014c-10.81,30.15-31.09,55.2-48.79,72.72-5,5-11,10.62-17.95,13.55-5.39,2.24-13.07,3.28-18.82-.6-2.92-1.93-5.89-7.2-6.79-12.07A10.35,10.35,0,0,1,325,1082a245.31,245.31,0,0,0,80.73-58.7,256.23,256.23,0,0,1-71.25,72.32c-2.71,1.79.38,5.79,3,4Q387.57,1065.37,417.25,1014Z"/><path class="cls-2" d="M637.89,996.06c.35.1.7.21,1.14.31A3.42,3.42,0,0,1,637.89,996.06Z"/><path class="cls-2" d="M639.19,996.34a4.7,4.7,0,0,0,2.83-1.06c3.45,1.59,6.89,3.19,10.32,4.7C648,998.7,643.57,997.52,639.19,996.34Z"/><path class="cls-2" d="M683,1012.21c4.84-4,15.69-1.63,11.25,2.79a6.63,6.63,0,0,1-.87.82C689.92,1014.72,686.38,1013.56,683,1012.21Z"/><path class="cls-2" d="M683,1012.21c3.4,1.35,6.94,2.51,10.38,3.61-35.68,35.33-77.83,71-119.29,99.28a5.23,5.23,0,0,1-2.28.88c.12-1.27.23-2.63.27-3.89a4.76,4.76,0,0,0-3.95-5.1,806.19,806.19,0,0,0,114.44-94.37A2,2,0,0,0,683,1012.21Z"/><path class="cls-2" d="M319.59,1073.45a5,5,0,0,1,5.88,7.62,3.18,3.18,0,0,0-.43.91c-3.41,1.58-6.85,3-10.31,4.32a16.44,16.44,0,0,1,2.49-11,7.39,7.39,0,0,1,1.44-1.41Z"/><path class="cls-2" d="M429.41,1068.45a39.11,39.11,0,0,1,16.59-5.21,66.46,66.46,0,0,1,10.3-.39A165.9,165.9,0,0,1,566,1106.93a4.92,4.92,0,0,0-3.91,4.08,1.24,1.24,0,0,0-.69.37c-3.53-1.58-7.11-3-10.67-4.31a155.65,155.65,0,0,0-94.59-34.17c-7.13-.14-15.16.29-21.38,4.09-.09-.06-.09-.06-.17,0-3.25-.46-8,4.36-4.87,4.83-2.15,3.12-3.25,7.07-1.93,10.44a10.29,10.29,0,0,0,3.34,4.45l-.07.1a5.08,5.08,0,0,0-3.9-1.86c-3,.09-5.73.22-8.28.48l-.57.09C414.43,1084.76,421.08,1073.61,429.41,1068.45Z"/><path class="cls-2" d="M434.77,1077c6.22-3.8,14.25-4.23,21.38-4.09a155.65,155.65,0,0,1,94.59,34.17A497.61,497.61,0,0,0,434.77,1077Z"/><path class="cls-2" d="M429.73,1081.77c-3.17-.47,1.62-5.29,4.87-4.83.08,0,.08,0,.17,0l-.08,0A16.26,16.26,0,0,0,429.73,1081.77Z"/><path class="cls-2" d="M434.69,1077l.08,0a497.61,497.61,0,0,1,116,30.08c2.21,1.72,4.26,3.46,6.32,5.29a20.38,20.38,0,0,1-2.76,1.46c-39.25-15.71-82.93-26.43-124.57-32A16.26,16.26,0,0,1,434.69,1077Z"/><path class="cls-2" d="M427.8,1092.21c-1.32-3.37-.22-7.32,1.93-10.44,41.64,5.62,85.32,16.34,124.57,32a75.71,75.71,0,0,1-27.17,7.91,98,98,0,0,1-25.41-.49c-20.89-2.93-41.24-11.12-59.08-18.32-4.3-1.7-8.63-3.65-11.5-6.26A10.29,10.29,0,0,1,427.8,1092.21Z"/><path class="cls-2" d="M398,1102.15a50.7,50.7,0,0,1,20.35-6.68l0,.25a21.51,21.51,0,0,0,7.09,9.34c-9.32.23-15.81,1.9-22.35,5.76a24.15,24.15,0,0,0-9.3,9.83c-1.81.14-3.69.38-5.5.59-3.18.46-2.67,5.47.51,5,1.06-.18,2.13-.28,3.2-.37a13.16,13.16,0,0,0-.08,4.52c.65,4.33,5.37,10,10.6,12.85,2.85,1.53,5.43,1.93,7.05,1.15a3.74,3.74,0,0,1,2.28-.38c-5.69,2-11.35,4.08-16.89,6.43-6.8-4.62-12-11.93-13-18.54-1.19-8.08,1.65-15.57,6.27-21.37A37.88,37.88,0,0,1,398,1102.15Z"/><path class="cls-2" d="M418.32,1095.47l.57-.09c2.55-.26,5.29-.39,8.28-.48a5.05,5.05,0,0,1,.11,10.1l-1.83.06a21.51,21.51,0,0,1-7.09-9.34Z"/><path class="cls-2" d="M431.07,1096.76l.07-.1c2.87,2.61,7.2,4.56,11.5,6.26,17.84,7.2,38.19,15.39,59.08,18.32a98,98,0,0,0,25.41.49,75.71,75.71,0,0,0,27.17-7.91c1,.34,2,.75,3,1.17-5,4-9.9,8.18-14.59,12.64a2,2,0,0,0-3-.17c-.29.3-.66.53-.95.83a290.59,290.59,0,0,0-47.57-.61,243.27,243.27,0,0,0-27.22-5.79c-8.79-3-17.22-6.47-25.19-9.64a50.61,50.61,0,0,1-13.41-7.19l1.83-.06a5,5,0,0,0,3.79-8.24Z"/><path class="cls-2" d="M403.1,1110.82c6.54-3.86,13-5.53,22.35-5.76a50.61,50.61,0,0,0,13.41,7.19c8,3.17,16.4,6.6,25.19,9.64a253.31,253.31,0,0,0-70.25-1.24A24.15,24.15,0,0,1,403.1,1110.82Z"/><path class="cls-2" d="M388.81,1126.26c-3.18.45-3.69-4.56-.51-5,1.81-.21,3.69-.45,5.5-.59a16.53,16.53,0,0,0-1.79,5.24C390.94,1126,389.87,1126.08,388.81,1126.26Z"/><path class="cls-2" d="M392,1125.89a16.53,16.53,0,0,1,1.79-5.24,253.31,253.31,0,0,1,70.25,1.24,213.84,213.84,0,0,0,20.78,6.28c-1.9.16-3.71.29-5.6.53-1.23.12-2.38.23-3.6.43A251.94,251.94,0,0,0,392,1125.89Z"/><path class="cls-2" d="M550.74,1107.07c3.56,1.32,7.14,2.73,10.67,4.31a2,2,0,0,0-.68.95l-.07.09c-1.12.77-2.22,1.71-3.33,2.57-1-.42-2.06-.83-3-1.17a20.38,20.38,0,0,0,2.76-1.46C555,1110.53,553,1108.79,550.74,1107.07Z"/><path class="cls-2" d="M566,1106.93l.49-.09a2.79,2.79,0,0,1,.82,0,3,3,0,0,1,.79.2,3.43,3.43,0,0,0-1,.92Z"/><path class="cls-2" d="M566,1106.93l1.08,1c-2,2.27-1,5.44,1.19,7.07a3.47,3.47,0,0,1-.49.59,5.87,5.87,0,0,1-.88.73,4.84,4.84,0,0,1-2.23,3.13,14.4,14.4,0,0,1-1.59.94c.83-2,1.51-3.93,2.18-5.88a2.74,2.74,0,0,0-3.17-3.48A4.92,4.92,0,0,1,566,1106.93Z"/><path class="cls-2" d="M567.09,1107.91a3.43,3.43,0,0,1,1-.92,4.76,4.76,0,0,1,3.95,5.1c0,1.26-.15,2.62-.27,3.89a4.8,4.8,0,0,1-3.51-1,5,5,0,0,0-.59-6.5C567.49,1108.26,567.3,1108.13,567.09,1107.91Z"/><path class="cls-2" d="M567.09,1107.91c.21.22.4.35.6.57a5,5,0,0,1,.59,6.5C566.08,1113.35,565.05,1110.18,567.09,1107.91Z"/><path class="cls-2" d="M562.1,1111a2.74,2.74,0,0,1,3.17,3.48c-.67,2-1.35,3.9-2.18,5.88a52.89,52.89,0,0,1-6.67,3.63c1.06-2.69,2.1-5.45,3-8.19.63.23,1.26.54,1.89.77,3,1.26,5.05-3.27,2-4.52a14.28,14.28,0,0,0-1.52-.58c.07-.09.23-.12.3-.21S562.11,1111.09,562.1,1111Z"/><path class="cls-2" d="M562.1,1111c0,.08-.06.18,0,.26s-.23.12-.3.21a.31.31,0,0,0-.35-.1A1.24,1.24,0,0,1,562.1,1111Z"/><path class="cls-2" d="M464.05,1121.89a243.27,243.27,0,0,1,27.22,5.79c-2.16.11-4.3.3-6.44.49A213.84,213.84,0,0,1,464.05,1121.89Z"/><path class="cls-2" d="M561.41,1111.38a.31.31,0,0,1,.35.1c-.37.32-.75.55-1,.85A2,2,0,0,1,561.41,1111.38Z"/><path class="cls-2" d="M561.76,1111.48a14.28,14.28,0,0,1,1.52.58c3.05,1.25,1,5.78-2,4.52-.63-.23-1.26-.54-1.89-.77.49-1.09.88-2.24,1.27-3.39l.07-.09C561,1112,561.39,1111.8,561.76,1111.48Z"/><path class="cls-2" d="M557.33,1115c1.11-.86,2.21-1.8,3.33-2.57-.39,1.15-.78,2.3-1.27,3.39A13.4,13.4,0,0,0,557.33,1115Z"/><path class="cls-2" d="M557.33,1115a13.4,13.4,0,0,1,2.06.82c-.87,2.74-1.91,5.5-3,8.19a73.26,73.26,0,0,1-13,4.77,1.86,1.86,0,0,0-.7-1.14C547.43,1123.17,552.32,1119,557.33,1115Z"/><path class="cls-2" d="M411.86,1144a299.71,299.71,0,0,1,63.77-14.9c5.45,1.09,10.94,2.43,16.46,3.93,2,.58,3.06-1.19,2.78-2.81,1.82.36,3.62.64,5.43.92a112.41,112.41,0,0,0,30.46.23c-3.5,1.09-7,2.26-10.35,3.58l-.41.07c-4.5.59-9.06,1.27-13.53,2a292.34,292.34,0,0,0-94.27,17.44l-.13-.23c.63-.28,1.26-.47,1.81-.73a5,5,0,0,0,2.47-6.68A4.76,4.76,0,0,0,411.86,1144Z"/><path class="cls-2" d="M475.63,1129.13c1.22-.2,2.37-.31,3.6-.43,1.89-.24,3.7-.37,5.6-.53,3.32.87,6.7,1.55,10,2.08.28,1.62-.76,3.39-2.78,2.81C486.57,1131.56,481.08,1130.22,475.63,1129.13Z"/><path class="cls-2" d="M484.83,1128.17c2.14-.19,4.28-.38,6.44-.49a13.09,13.09,0,0,1,1.65.39,2.64,2.64,0,0,1,1.95,2.18C491.53,1129.72,488.15,1129,484.83,1128.17Z"/><path class="cls-2" d="M492.92,1128.07a13.09,13.09,0,0,0-1.65-.39,290.59,290.59,0,0,1,47.57.61c-.8.72-1.68,1.45-2.48,2.17a19.53,19.53,0,0,1-2.26.47H534a3.16,3.16,0,0,0-1.26,0,3.94,3.94,0,0,0-1,.16c-.32.14-.72.21-1,.34a112.41,112.41,0,0,1-30.46-.23c-1.81-.28-3.61-.56-5.43-.92A2.64,2.64,0,0,0,492.92,1128.07Z"/><path class="cls-2" d="M567.79,1115.57a3.47,3.47,0,0,0,.49-.59,4.8,4.8,0,0,0,3.51,1A201.89,201.89,0,0,1,509,1248.14c-3.46,3.26-7.62,6.88-12.83,8.68-6.57,2.19-13.56.86-17.81-3.53-7.46-7.6-3.37-19.57-2-23.48,1.06-3.1,2.21-6.22,3.45-9.27a163.51,163.51,0,0,0,27-33.53l.56.32a238.13,238.13,0,0,0-21.48,45.73c-2.23,6.65-2.4,11.1-.28,13.26a6,6,0,0,0,4.84,1.44.75.75,0,0,0,.42,0,9.45,9.45,0,0,0,2.08-.52c3.4-1.15,6.38-3.83,9.27-6.48a191.88,191.88,0,0,0,58.33-113.44,66,66,0,0,0,2.6-7,14.4,14.4,0,0,0,1.59-.94,4.84,4.84,0,0,0,2.23-3.13A5.87,5.87,0,0,0,567.79,1115.57Z"/><path class="cls-2" d="M563.09,1120.37a66,66,0,0,1-2.6,7,15.86,15.86,0,0,0,.38-2.24q-3.63,3-7.23,6.23c1-2.43,2-4.84,2.78-7.32A52.89,52.89,0,0,0,563.09,1120.37Z"/><path class="cls-2" d="M411.86,1144a4.76,4.76,0,0,1,4.49,2.84,5,5,0,0,1-2.47,6.68c-.55.26-1.18.45-1.81.73-4.29,1.3-9.26.55-14.31-2.11-.92-.52-1.86-1.11-2.79-1.71C400.51,1148.11,406.17,1146,411.86,1144Z"/><path class="cls-2" d="M392.4,1151.56c.85-.39,1.72-.7,2.57-1.1.93.6,1.87,1.19,2.79,1.71,5.05,2.66,10,3.41,14.31,2.11l.13.23c-5.35,2-10.61,4-15.82,6.33s-10.58,4.7-14.35,8.6c-3.64,3.7-5.36,8.42-4.31,12.17-1,1.76.24,4.39,2.17,4,3.79,4.13,11.31,5.62,17.73,4.54a82.16,82.16,0,0,0,13.31-3.9c5.36-1.91,10.88-3.84,16.86-4.59l.08,0a1.2,1.2,0,0,1,.5,0,138,138,0,0,0-19.48,15.9,56.06,56.06,0,0,1-9.52,2.52c-12.76,2.14-28-3.15-31.39-15.71-1.89-7.28.71-15.66,6.84-22C379.88,1157.18,386.23,1154.19,392.4,1151.56Z"/><path class="cls-2" d="M539.79,1127.46a2,2,0,0,1,3,.17c-.36.32-.65.61-1,.93-.94-.1-1.87-.19-2.89-.27C539.13,1128,539.5,1127.76,539.79,1127.46Z"/><path class="cls-2" d="M541.73,1128.56c.36-.32.65-.61,1-.93a1.86,1.86,0,0,1,.7,1.14.28.28,0,0,1-.23.12,2.66,2.66,0,0,0-1.14-.31C542,1128.6,541.81,1128.54,541.73,1128.56Z"/><path class="cls-2" d="M536.36,1130.46c.8-.72,1.68-1.45,2.48-2.17,1,.08,1.95.17,2.89.27-.37.31-.72.7-1.08,1C539.28,1129.89,537.83,1130.22,536.36,1130.46Z"/><path class="cls-2" d="M560.87,1125.09a15.86,15.86,0,0,1-.38,2.24,430.49,430.49,0,0,1-68.41,119.56,2.77,2.77,0,0,1-1.27.88.75.75,0,0,1-.42,0,2.5,2.5,0,0,1-2.19-4.06,433.67,433.67,0,0,0,65.44-112.38Q557.24,1128.08,560.87,1125.09Z"/><path class="cls-2" d="M541.73,1128.56c.08,0,.26,0,.34,0a2.66,2.66,0,0,1,1.14.31l-2.56.68C541,1129.26,541.36,1128.87,541.73,1128.56Z"/><path class="cls-2" d="M543.44,1128.77a73.26,73.26,0,0,0,13-4.77c-.83,2.48-1.76,4.89-2.78,7.32a246.29,246.29,0,0,0-46.33,56l-.56-.32a5.06,5.06,0,0,0-1.66-6.91,5.18,5.18,0,0,0-5-.16,244.57,244.57,0,0,1,21.29-29.49c3.21-2.79,6.48-5.68,9.69-8.48,1.26-.46,2.52-.92,3.79-1.3a5.29,5.29,0,0,0,2.84-2.49c1.11.15,2.29.2,3.4.35a5,5,0,0,0,2.48-9.61C543.53,1128.84,543.53,1128.84,543.44,1128.77Z"/><path class="cls-2" d="M543.44,1128.77c.09.07.09.07.1.15a.48.48,0,0,0-.33,0A.28.28,0,0,0,543.44,1128.77Z"/><path class="cls-2" d="M543.21,1128.89a.48.48,0,0,1,.33,0,2.48,2.48,0,0,1-.81,2.64c-1.52,1.35-3,2.68-4.5,4a2,2,0,0,0-.13-1.23,3.55,3.55,0,0,0-.82-1.45c1.15-1.11,2.22-2.21,3.37-3.33Z"/><path class="cls-2" d="M542.73,1131.56a2.48,2.48,0,0,0,.81-2.64,5,5,0,0,1-2.48,9.61c-1.11-.15-2.29-.2-3.4-.35a4.58,4.58,0,0,0,.57-2.6C539.76,1134.24,541.21,1132.91,542.73,1131.56Z"/><path class="cls-2" d="M531.79,1131.06a3.94,3.94,0,0,1,1-.16,3.16,3.16,0,0,1,1.26,0c-1.06.18-2.19.37-3.26.46C531.07,1131.27,531.47,1131.2,531.79,1131.06Z"/><path class="cls-2" d="M540.65,1129.57c-1.15,1.12-2.22,2.22-3.37,3.33a3.31,3.31,0,0,0-1.93-1.52c.37-.31.65-.61,1-.92C537.83,1130.22,539.28,1129.89,540.65,1129.57Z"/><path class="cls-2" d="M520.41,1135c3.37-1.32,6.85-2.49,10.35-3.58,1.07-.09,2.2-.28,3.26-.46h.08a3.14,3.14,0,0,1,1.25.45c-2.33,2.07-4.66,4.13-7,6.11-1.77-.12-3.53-.16-5.3-.19A2.29,2.29,0,0,0,520.41,1135Z"/><path class="cls-2" d="M534.1,1130.93a19.53,19.53,0,0,0,2.26-.47c-.36.31-.64.61-1,.92A3.14,3.14,0,0,0,534.1,1130.93Z"/><path class="cls-2" d="M528.35,1137.49c2.34-2,4.67-4,7-6.11a3.31,3.31,0,0,1,1.93,1.52c-1.57,1.6-3.14,3.2-4.7,4.88Z"/><path class="cls-2" d="M378.72,1180.61a411,411,0,0,1,127.75-43.54c2.75,0,5.42-.07,8.1,0-5.67,2-11.31,4.32-16.85,6.68a409.42,409.42,0,0,0-117.12,41.58,3.13,3.13,0,0,1-.71.28,9.2,9.2,0,0,1-2.15-3.9l0-.08A2.46,2.46,0,0,1,378.72,1180.61Z"/><path class="cls-2" d="M506.47,1137.07c4.47-.75,9-1.43,13.53-2-1.81.64-3.63,1.28-5.43,2C511.89,1137,509.22,1137,506.47,1137.07Z"/><path class="cls-2" d="M520,1135.05l.41-.07a2.29,2.29,0,0,1,2.64,2.32c-2.87-.19-5.63-.23-8.48-.25C516.37,1136.33,518.19,1135.69,520,1135.05Z"/><path class="cls-2" d="M537.28,1132.9a3.55,3.55,0,0,1,.82,1.45,2,2,0,0,1,.13,1.23c-1,.83-1.82,1.64-2.76,2.47-.94-.09-1.87-.19-2.89-.27C534.14,1136.1,535.71,1134.5,537.28,1132.9Z"/><path class="cls-2" d="M514.57,1137.05c2.85,0,5.61.06,8.48.25a2.41,2.41,0,0,1-2.13,2.69c-7.77,1.06-15.5,2.27-23.2,3.74C503.26,1141.37,508.9,1139.09,514.57,1137.05Z"/><path class="cls-2" d="M523.05,1137.3c1.77,0,3.53.07,5.3.19-3.34,3-6.68,6-10.11,9A385.6,385.6,0,0,0,438.3,1187l-6.74,4.64-.55-.74a5.1,5.1,0,0,0,2.44-4.93,5,5,0,0,0-5.08-4.33c1.41-1.07,2.93-2,4.35-3a393.48,393.48,0,0,1,65-34.91c7.7-1.47,15.43-2.68,23.2-3.74A2.41,2.41,0,0,0,523.05,1137.3Z"/><path class="cls-2" d="M535.47,1138.05c.94-.83,1.81-1.64,2.76-2.47a4.58,4.58,0,0,1-.57,2.6Z"/><path class="cls-2" d="M528.35,1137.49l4.23.29c-1.72,1.71-3.34,3.49-5,5.35-3.17,1-6.33,2.15-9.39,3.33C521.67,1143.46,525,1140.48,528.35,1137.49Z"/><path class="cls-2" d="M532.58,1137.78c1,.08,1.95.18,2.89.27-1.55,1.26-3,2.59-4.44,3.92a26.73,26.73,0,0,0-3.4,1.16C529.24,1141.27,530.86,1139.49,532.58,1137.78Z"/><path class="cls-2" d="M531,1142c1.45-1.33,2.89-2.66,4.44-3.92l2.19.13a5.29,5.29,0,0,1-2.84,2.49C533.55,1141.05,532.29,1141.51,531,1142Z"/><path class="cls-2" d="M527.63,1143.13A26.73,26.73,0,0,1,531,1142c-3.21,2.8-6.48,5.69-9.69,8.48C523.34,1148,525.44,1145.5,527.63,1143.13Z"/><path class="cls-2" d="M518.24,1146.46c3.06-1.18,6.22-2.3,9.39-3.33-2.19,2.37-4.29,4.82-6.29,7.32-37.17,32.49-75,64-116.41,91.11a2.66,2.66,0,0,1-4.07-1.82,2.15,2.15,0,0,1,1.06-2.19C443.33,1210.45,481.08,1179,518.24,1146.46Z"/><path class="cls-2" d="M377.72,1181.61l0,.08a9.2,9.2,0,0,0,2.15,3.9C378,1186,376.68,1183.37,377.72,1181.61Z"/><path class="cls-2" d="M428.37,1181.62a5,5,0,0,1,5.08,4.33,5.1,5.1,0,0,1-2.44,4.93,4.14,4.14,0,0,1-2,.74c-4.92.58-9.73,2.31-14.78,4.07-1.81.64-3.55,1.27-5.38,1.83A138,138,0,0,1,428.37,1181.62Z"/><path class="cls-2" d="M431,1190.88l.55.74c-12.38,8.93-24.5,19.83-29.77,34.25-1.6,4.37-2.32,9.59-1.25,13.92a10.8,10.8,0,0,0,4.13,6.66c4.19,3.06,10.88,2.6,20.24-1.39a158.32,158.32,0,0,0,73.27-63.3,5.52,5.52,0,0,1,1.87-1.82,248.83,248.83,0,0,0-20.26,40.6,167.85,167.85,0,0,1-51,33.81c-12.88,5.42-22.65,5.48-29.95.35-10.13-7.07-10.53-21.38-6.52-32.34,3.55-9.7,9.46-17.8,16.55-24.84,1.83-.56,3.57-1.19,5.38-1.83,5.05-1.76,9.86-3.49,14.78-4.07A4.14,4.14,0,0,0,431,1190.88Z"/><path class="cls-2" d="M500.05,1179.94a5.18,5.18,0,0,1,5,.16,5.06,5.06,0,0,1,1.66,6.91,163.51,163.51,0,0,1-27,33.53A248.83,248.83,0,0,1,500.05,1179.94Z"/></svg>