<?xml version="1.0" encoding="UTF-8" standalone="no"?><!DOCTYPE svg PUBLIC "-//W3C//DTD SVG 1.1//EN" "http://www.w3.org/Graphics/SVG/1.1/DTD/svg11.dtd"><svg width="100%" height="100%" viewBox="0 0 4371 2000" version="1.1" xmlns="http://www.w3.org/2000/svg" xmlns:xlink="http://www.w3.org/1999/xlink" xml:space="preserve" xmlns:serif="http://www.serif.com/" style="fill-rule:evenodd;clip-rule:evenodd;stroke-linejoin:round;stroke-miterlimit:2;"><rect id="Mesa-de-trabajo1" serif:id="Mesa de trabajo1" x="-2084.03" y="-4614.58" width="12817.4" height="9050.5" style="fill:none;"/><path id="Down" d="M2112.72,1224.62l1992.72,-885.925l-204.134,-93.492l-1788.59,796.888l-1788.58,-796.888l-204.133,93.492l1992.72,885.925Z" style="fill-rule:nonzero;"/><path id="Down1" serif:id="Down" d="M2112.72,1224.62l1992.72,-885.925l-204.134,-93.492l-1788.59,796.888l-1788.58,-796.888l-204.133,93.492l1992.72,885.925Z" style="fill-rule:nonzero;"/><path id="Down2" serif:id="Down" d="M2112.72,1224.62l1992.72,-885.925l-204.134,-93.492l-1788.59,796.888l-1788.58,-796.888l-204.133,93.492l1992.72,885.925Z" style="fill:#fff;fill-rule:nonzero;stroke:#fff;stroke-width:4.17px;"/><path id="Down3" serif:id="Down" d="M2125.17,1921.66l1992.72,-885.925l-204.133,-93.488l-1788.58,796.883l-1788.59,-796.883l-204.133,93.488l1992.72,885.925Z" style="fill:#fff;fill-rule:nonzero;stroke:#fff;stroke-width:4.17px;"/></svg>